HIERARCHY
ROOT root
{
	OFFSET 0.000000 0.000000 0.000000
	CHANNELS 6 Xposition Yposition Zposition Zrotation Yrotation Xrotation
	JOINT lhip
	{
		OFFSET 0.058581 -0.082280 -0.017664
		CHANNELS 3 Zrotation Yrotation Xrotation
		JOINT lknee
		{
			OFFSET 0.043451 -0.386469 0.008037
			CHANNELS 3 Zrotation Yrotation Xrotation
			JOINT lankle
			{
				OFFSET -0.014790 -0.426874 -0.037428
				CHANNELS 3 Zrotation Yrotation Xrotation
				JOINT ltoe
				{
					OFFSET 0.041054 -0.060286 0.122042
					CHANNELS 3 Zrotation Yrotation Xrotation
					End Site
					{
						OFFSET 0.000000 0.000000 0.000000
					}
				}
			}
		}
	}
	JOINT rhip
	{
		OFFSET -0.060310 -0.090513 -0.013543
		CHANNELS 3 Zrotation Yrotation Xrotation
		JOINT rknee
		{
			OFFSET -0.043257 -0.383688 -0.004843
			CHANNELS 3 Zrotation Yrotation Xrotation
			JOINT rankle
			{
				OFFSET 0.019056 -0.420046 -0.034562
				CHANNELS 3 Zrotation Yrotation Xrotation
				JOINT rtoe
				{
					OFFSET -0.034840 -0.062106 0.130323
					CHANNELS 3 Zrotation Yrotation Xrotation
					End Site
					{
						OFFSET 0.000000 0.000000 0.000000
					}
				}
			}
		}
	}
	JOINT lowerback
	{
		OFFSET 0.004439 0.124404 -0.038385
		CHANNELS 3 Zrotation Yrotation Xrotation
		JOINT upperback
		{
			OFFSET 0.004488 0.137956 0.026820
			CHANNELS 3 Zrotation Yrotation Xrotation
			JOINT chest
			{
				OFFSET -0.002265 0.056032 0.002855
				CHANNELS 3 Zrotation Yrotation Xrotation
				JOINT lowerneck
				{
					OFFSET -0.013390 0.211636 -0.033468
					CHANNELS 3 Zrotation Yrotation Xrotation
					JOINT upperneck
					{
						OFFSET 0.010113 0.088937 0.050410
						CHANNELS 3 Zrotation Yrotation Xrotation
						End Site
						{
							OFFSET 0.000000 0.000000 0.000000
						}
					}
				}
				JOINT lclavicle
				{
					OFFSET 0.071702 0.114000 -0.018898
					CHANNELS 3 Zrotation Yrotation Xrotation
					JOINT lshoulder
					{
						OFFSET 0.122921 0.045205 -0.019046
						CHANNELS 3 Zrotation Yrotation Xrotation
						JOINT lelbow
						{
							OFFSET 0.255332 -0.015649 -0.022946
							CHANNELS 3 Zrotation Yrotation Xrotation
							JOINT lwrist
							{
								OFFSET 0.265709 0.012698 -0.007375
								CHANNELS 3 Zrotation Yrotation Xrotation
								End Site
								{
									OFFSET 0.000000 0.000000 0.000000
								}
							}
						}
					}
				}
				JOINT rclavicle
				{
					OFFSET -0.082954 0.112472 -0.023707
					CHANNELS 3 Zrotation Yrotation Xrotation
					JOINT rshoulder
					{
						OFFSET -0.113228 0.046853 -0.008472
						CHANNELS 3 Zrotation Yrotation Xrotation
						JOINT relbow
						{
							OFFSET -0.260127 -0.014369 -0.031269
							CHANNELS 3 Zrotation Yrotation Xrotation
							JOINT rwrist
							{
								OFFSET -0.269108 0.006794 -0.006027
								CHANNELS 3 Zrotation Yrotation Xrotation
								End Site
								{
									OFFSET 0.000000 0.000000 0.000000
								}
							}
						}
					}
				}
			}
		}
	}
}
MOTION
Frames: 11
Frame Time: 0.033333
0.319503 -0.145429 0.953887 130.564620 5.284859 85.574174 31.781516 12.994024 1.853533 2.769563 3.915440 37.530666 -26.797192 6.271220 23.224629 0.000000 -0.000000 0.000000 9.598531 11.383618 -20.362629 5.515184 7.853764 33.809352 2.674342 16.446975 -12.474830 0.000000 -0.000000 0.000000 -15.946587 -9.620104 14.737269 -2.520855 -25.189181 7.465482 -1.624310 -11.100313 -15.912741 -17.727704 60.178117 -1.249630 -1.855499 30.610199 -3.756219 33.398431 -58.424509 -41.056767 23.174278 -74.219755 -47.431738 8.993795 -22.334325 -0.642682 8.627936 -16.565200 -1.945824 -11.301345 16.661785 -17.483875 38.209627 29.365156 -2.158301 -108.330791 38.891149 -68.841563 -47.852890 8.985069 -26.349399 
0.318172 -0.145467 0.954872 130.374155 5.080879 85.651332 31.733444 12.960640 1.650761 2.108394 3.447175 37.789321 -27.032415 6.125370 23.310950 0.000000 -0.000000 0.000000 9.357056 11.192951 -20.524680 5.632044 8.232791 33.793906 3.077248 16.595886 -12.219073 0.000000 -0.000000 0.000000 -15.857155 -9.594173 15.164166 -2.572822 -25.259707 7.038132 -1.696204 -11.077869 -15.632765 -18.414331 60.340507 -2.030388 -1.927469 30.790326 -3.870337 34.825947 -58.162596 -42.375514 25.699188 -73.757447 -49.426549 9.205534 -22.362885 -1.100527 9.271403 -16.517097 -1.582698 -12.195008 16.322776 -18.115910 37.207634 28.984523 -2.601682 -107.959815 38.509836 -68.854351 -48.003184 8.967679 -26.165697 
0.315226 -0.145520 0.955910 130.558076 4.912960 85.835380 31.648910 12.964388 0.981164 1.466755 3.158675 38.285139 -27.416584 6.027012 23.449670 0.000000 -0.000000 0.000000 8.824957 10.956690 -20.790213 5.753202 8.157482 33.498792 3.487729 16.575552 -12.511142 0.000000 -0.000000 0.000000 -15.842557 -9.357088 15.653680 -2.556935 -25.364148 6.912771 -1.605823 -11.144190 -15.586993 -18.081845 60.134688 -1.895139 -1.875492 30.750532 -3.711449 35.584196 -58.223829 -43.065703 27.363362 -73.450998 -50.805551 9.335527 -22.155076 -1.143690 9.053550 -15.775475 -1.217329 -12.869119 16.246476 -18.422483 36.596544 28.479878 -3.108055 -107.290676 38.208988 -68.604122 -48.374199 8.438637 -26.987582 
0.310753 -0.145497 0.957026 131.031103 4.907581 85.901854 31.817537 13.137826 0.344361 1.124188 3.286695 38.680292 -27.760582 5.859792 23.474379 0.000000 -0.000000 0.000000 8.361752 10.473632 -20.972072 5.768696 7.868536 33.121015 3.830244 16.771714 -12.371316 0.000000 -0.000000 0.000000 -15.687819 -9.069820 16.584282 -2.408296 -25.394497 6.414612 -1.471690 -11.264298 -15.220898 -18.032133 60.181486 -1.920344 -1.917326 30.567994 -3.686586 35.963979 -58.155866 -43.424594 27.781115 -73.200821 -50.984565 9.051296 -21.813514 -0.844547 9.240970 -15.018908 -0.796453 -13.129039 16.081514 -18.660652 36.293271 28.375468 -3.286698 -106.141990 38.339911 -68.454117 -49.000688 7.510580 -28.027874 
0.304327 -0.145405 0.958020 131.547655 4.802053 86.123739 31.812841 13.609773 -0.383828 0.718909 3.330812 39.159413 -27.950119 5.167899 22.771924 0.000000 -0.000000 0.000000 7.633017 9.526814 -21.505736 5.706581 7.404544 32.939841 5.035443 17.552237 -11.494034 0.000000 -0.000000 0.000000 -15.618635 -8.697310 17.222880 -2.287925 -25.314530 6.141632 -1.363169 -11.275399 -14.850434 -17.561564 60.256708 -1.480810 -2.029502 30.408222 -3.482224 35.609534 -57.794943 -43.019766 27.299333 -73.393905 -50.777851 8.982710 -21.268134 -0.443411 8.350278 -13.957020 -0.356080 -13.116555 15.892784 -18.653599 36.553714 28.816351 -3.145596 -104.466480 38.604208 -67.782693 -49.066666 5.935834 -29.522323 
0.296443 -0.145542 0.958604 132.205160 4.788662 86.446149 31.882442 13.997941 -0.934825 0.296446 3.586846 39.194622 -28.354900 4.205511 21.726495 0.000000 -0.000000 0.000000 6.890582 8.924490 -22.053596 5.602440 6.858865 32.326471 6.588324 17.938366 -10.671899 0.000000 -0.000000 0.000000 -15.623463 -8.226275 17.699282 -2.138313 -25.193454 6.413865 -1.149891 -11.127125 -14.723182 -16.845205 60.380899 -0.848154 -2.132130 29.746382 -3.615435 35.582723 -57.574482 -42.617491 25.073742 -73.326723 -49.043172 8.980856 -20.686697 -0.296781 7.324390 -12.868295 -0.197281 -13.135125 16.172459 -18.547993 37.525076 29.196658 -2.666448 -102.708504 38.451120 -67.433882 -49.190322 4.357656 -30.896935 
0.285936 -0.146044 0.959095 133.465481 4.868455 86.758542 31.726947 14.036932 -1.650240 -0.379949 3.519285 39.085378 -28.182737 3.143368 19.344741 0.000000 -0.000000 0.000000 6.172410 8.289899 -22.611838 5.334770 6.027162 31.705791 7.143816 17.488844 -10.445737 0.000000 -0.000000 0.000000 -15.393163 -7.847024 18.635661 -1.869109 -25.025154 6.331760 -1.060036 -11.207109 -14.182423 -16.120337 60.371199 -0.384555 -2.109843 29.301475 -3.113389 34.383589 -57.507842 -41.693107 23.656013 -73.713706 -47.309026 8.251342 -19.540868 0.472128 6.509686 -11.894056 -0.397209 -12.658641 16.519824 -18.579210 38.741705 29.903780 -1.370331 -100.575285 38.267283 -66.726241 -49.917670 2.277560 -33.007109 
0.273626 -0.146046 0.959600 135.041135 4.838131 87.032849 31.083485 13.990963 -2.156601 -0.948246 3.478459 38.617589 -26.952257 1.592646 15.418474 0.000000 -0.000000 0.000000 5.240269 7.632626 -23.100382 5.038116 5.193471 31.121907 7.038988 16.650916 -10.512357 0.000000 -0.000000 0.000000 -15.147713 -7.430178 19.849210 -1.626180 -24.880245 6.184137 -0.778301 -11.200197 -13.843184 -15.782267 60.140601 -0.101899 -2.148416 29.094886 -2.736436 33.467029 -57.650022 -40.696536 19.794608 -73.731220 -43.918569 8.027947 -18.896544 0.779417 5.244843 -10.825750 -0.023802 -12.239012 17.176153 -18.562360 40.853865 30.682564 -0.024892 -98.771590 37.569304 -66.469629 -47.852630 0.928273 -33.794345 
0.259316 -0.147158 0.959972 137.525893 4.832626 87.790806 30.132147 14.066847 -3.560468 -1.598647 3.902893 37.908062 -25.063051 0.521634 11.085302 0.000000 -0.000000 0.000000 4.131360 6.987742 -24.123230 4.642439 4.158180 30.461920 7.422170 15.345546 -10.012647 0.000000 -0.000000 0.000000 -14.878781 -7.054915 21.035384 -0.995243 -24.873755 5.582624 -0.463554 -11.369852 -13.041574 -14.757438 59.777884 0.656496 -2.240983 28.639474 -1.912270 32.152392 -57.504109 -39.164931 15.972029 -74.267812 -40.736738 7.603433 -17.833656 2.301118 4.349125 -9.726203 -0.005129 -11.397806 17.523352 -18.253726 43.322077 32.015678 1.752998 -96.147753 36.768319 -64.964341 -47.002370 -1.240298 -34.714828 
0.242794 -0.148621 0.959577 140.783248 4.726449 88.798353 28.881255 14.590842 -5.491442 -1.634483 5.378271 37.177953 -23.343192 -0.546602 6.798717 0.000000 -0.000000 0.000000 2.775434 5.927238 -25.417990 3.948693 2.688731 29.910378 8.536278 14.544752 -8.738342 0.000000 -0.000000 0.000000 -14.226340 -7.031810 22.299596 -0.251836 -24.910671 5.085190 -0.200381 -11.915448 -12.045644 -16.081095 59.186099 -1.155461 -2.092201 28.015237 -0.876806 30.467155 -55.684916 -37.648199 10.414319 -76.110734 -36.826802 7.239279 -16.536222 4.501762 3.043466 -8.623371 -1.115727 -10.539100 17.521158 -18.029950 47.021260 33.832658 4.135885 -93.993244 35.932551 -63.956040 -45.589211 -2.567456 -37.601365 
0.224105 -0.150426 0.958685 144.928241 4.714966 89.808554 27.556941 14.997401 -7.676804 -1.861252 7.374611 35.996694 -21.268662 -1.307214 2.174235 0.000000 -0.000000 0.000000 1.233938 5.353886 -26.407391 3.135322 0.977559 29.076885 7.991941 12.258473 -8.898970 0.000000 -0.000000 0.000000 -13.581227 -6.414491 23.577704 0.637647 -24.947650 4.947362 0.280172 -11.740730 -11.533502 -12.322598 57.784226 2.100340 -2.087959 26.979360 0.128843 28.656797 -57.336650 -35.097605 5.326846 -76.142148 -32.760956 6.948667 -15.082054 4.505104 1.672016 -8.038129 -0.804285 -8.603071 18.144934 -17.109086 49.749464 33.580008 6.048644 -92.130245 34.956265 -63.913399 -44.129173 -3.940127 -38.819077 
